<?xml version="1.0" standalone="no"?>
<!DOCTYPE svg PUBLIC "-//W3C//DTD SVG 20010904//EN"
 "http://www.w3.org/TR/2001/REC-SVG-20010904/DTD/svg10.dtd">
<svg version="1.0" xmlns="http://www.w3.org/2000/svg"
 width="310.000000pt" height="310.000000pt" viewBox="0 0 310.000000 310.000000"
 preserveAspectRatio="xMidYMid meet">
<metadata>
Created by potrace 1.11, written by Peter Selinger 2001-2013
</metadata>
<g transform="translate(0.000000,310.000000) scale(0.100000,-0.100000)"
fill="#000000" stroke="none">
<path d="M1726 2257 c-49 -133 -117 -318 -152 -412 -35 -93 -146 -395 -248
-670 -101 -275 -189 -512 -194 -527 -10 -25 -8 -27 51 -57 l61 -31 78 213 c43
116 109 295 147 397 38 102 128 347 201 545 72 198 134 367 137 375 4 8 34 89
68 180 l62 165 -59 33 c-32 17 -59 32 -61 32 -1 0 -42 -109 -91 -243z"/>
<path d="M870 2133 c-63 -46 -176 -128 -250 -182 -301 -218 -486 -354 -507
-373 -16 -15 -21 -30 -19 -50 2 -16 5 -30 7 -32 24 -17 151 -105 214 -148 44
-30 208 -144 365 -252 157 -109 292 -202 301 -206 13 -7 22 5 50 62 19 39 30
73 24 75 -5 2 -63 40 -127 86 -65 45 -230 161 -367 257 -138 96 -247 178 -243
181 4 3 171 122 372 264 201 142 367 259 370 262 4 4 -56 120 -69 134 -3 4
-58 -31 -121 -78z"/>
<path d="M2098 2197 c-30 -50 -62 -116 -58 -120 5 -5 292 -208 568 -403 95
-67 172 -126 171 -131 -2 -4 -163 -120 -359 -256 -195 -136 -361 -254 -368
-261 -11 -11 -9 -22 13 -67 43 -84 38 -83 118 -27 40 27 234 162 432 299 198
137 367 256 376 263 9 8 16 27 15 44 -1 28 -27 49 -331 271 -608 444 -562 413
-577 388z"/>
</g>
</svg>
